<svg xmlns="http://www.w3.org/2000/svg" viewBox="0 0 602 194">
<title>Electrical Consultants, Inc. - Logo</title>
<defs><clipPath id="clip_pole"><path transform="translate(45,32) scale(0.125000) translate(0,1200.0) scale(1,-1)" d="M104 1180 l-3 -4 -29 0 c-25 0 -29 0 -30 -2 -2 -1 -2 -4 -2 -18 0
-21 0 -20 12 -20 12 0 12 0 12 -16 0 -7 0 -13 1 -14 1 -2 2 -2 7 -2 7 0 8 -1
8 -12 0 -7 0 -9 2 -10 1 -1 3 -4 6 -6 3 -2 5 -5 6 -6 2 -1 2 -4 2 -22 0 -18 0
-21 2 -22 0 -1 2 -2 2 -2 0 0 2 -1 2 -2 3 -2 3 -18 0 -20 -2 -3 -42 -3 -44 0
-2 1 -2 4 -2 14 0 15 -1 16 -8 16 -4 0 -5 0 -7 -3 -1 -1 -2 -3 -3 -4 -1 -1 -4
-1 -10 -1 -13 0 -12 2 -12 -28 l0 -26 3 -1 c1 -1 4 -3 5 -5 3 -4 3 -4 9 -4 6
0 7 -1 7 -12 0 -7 0 -9 2 -10 0 -1 2 -2 2 -2 0 0 2 -1 2 -2 2 -1 2 -4 2 -14 0
-7 0 -13 1 -14 1 -2 2 -2 7 -2 5 0 6 0 7 -2 1 -1 1 -10 1 -22 0 -12 0 -21 1
-22 1 -2 2 -2 6 -2 5 0 6 0 10 -4 2 -3 4 -5 5 -6 2 -1 2 -3 2 -10 0 -7 0 -9 2
-10 0 -1 2 -2 2 -2 0 0 2 -1 2 -2 2 -1 2 -9 2 -70 0 -61 0 -69 2 -70 0 -1 2
-2 2 -2 0 0 2 -1 2 -2 2 -1 2 -3 2 -10 0 -7 0 -9 -2 -10 0 -1 -2 -2 -2 -2 0 0
-2 -1 -2 -2 -2 -1 -2 -4 -2 -14 0 -14 0 -15 5 -17 3 0 3 -3 3 -12 0 -8 -1 -8
-3 -10 -6 -3 -6 -7 0 -10 2 -2 3 -2 3 -10 0 -9 0 -12 -3 -12 -5 -2 -5 -3 -5
-17 0 -10 0 -13 2 -14 0 -1 2 -2 2 -2 0 0 2 -1 2 -2 3 -2 3 -18 0 -20 0 -1 -2
-2 -2 -2 0 0 -2 -1 -2 -2 -3 -2 -3 -26 0 -28 0 -1 2 -2 2 -2 0 0 2 -1 2 -2 3
-2 3 -18 0 -20 0 -1 -2 -2 -2 -2 0 0 -2 -1 -2 -2 -2 -1 -2 -5 -2 -30 0 -25 0
-29 2 -30 0 -1 2 -2 2 -2 0 0 2 -1 2 -2 3 -2 3 -18 0 -20 0 -1 -2 -2 -2 -2 0
0 -2 -1 -2 -2 -3 -2 -3 -26 0 -28 0 -1 2 -2 2 -2 0 0 2 -1 2 -2 3 -2 3 -18 0
-20 0 -1 -2 -2 -2 -2 0 0 -2 -1 -2 -2 -3 -2 -3 -26 0 -28 0 -1 2 -2 2 -2 0 0
2 -1 2 -2 3 -2 3 -18 0 -20 0 -1 -2 -2 -2 -2 0 0 -2 -1 -2 -2 -2 -1 -2 -5 -2
-30 0 -25 0 -29 2 -30 0 -1 2 -2 2 -2 0 0 2 -1 2 -2 2 -1 2 -3 2 -10 0 -7 0
-9 -2 -10 0 -1 -2 -2 -2 -2 0 0 -2 -1 -2 -2 -3 -2 -3 -26 0 -28 0 -1 2 -2 2
-2 0 0 2 -1 2 -2 3 -2 3 -18 0 -20 0 -1 -2 -2 -2 -2 0 0 -2 -1 -2 -2 -2 -1 -2
-5 -2 -30 0 -25 0 -29 2 -30 0 -1 2 -2 2 -2 0 0 2 -1 2 -2 2 -1 2 -4 2 -14 0
-7 0 -13 1 -14 1 -2 2 -2 23 -2 21 0 22 0 23 2 1 1 1 105 1 326 0 294 0 325 2
326 1 2 4 2 22 2 12 0 21 0 22 1 2 1 2 2 2 19 l0 18 -3 2 c-2 1 -4 2 -4 2 -1
1 -1 7 -1 14 0 11 0 13 -2 14 -1 1 -3 3 -5 6 -3 2 -6 4 -7 5 -2 1 -2 2 -2 7 0
3 -1 6 -1 7 -1 0 -4 1 -7 1 -5 0 -6 0 -7 2 -1 1 -1 7 -1 14 0 10 0 13 -2 14 0
1 -2 2 -2 2 0 0 -2 1 -2 2 -2 1 -2 8 -2 66 0 58 0 65 2 66 1 2 3 2 10 2 12 0
12 0 12 12 0 8 1 12 3 12 3 0 5 4 5 8 0 3 0 4 -6 10 -6 6 -6 6 -11 6 -2 0 -5
1 -6 1 0 1 -1 4 -1 7 0 6 0 6 -3 8 -2 1 -4 2 -4 2 -1 1 -1 41 -1 90 0 59 0 89
-1 90 -1 2 -2 2 -22 2 l-22 0 -3 -4z"/></clipPath><clipPath id="clip_E"><path transform="translate(88,29) scale(0.125000) translate(0,496.0) scale(1,-1)" d="M24 476 c-1 -2 -4 -4 -5 -5 l-3 -1 0 -218 0 -218 4 -2 4 -2 0 -6 c0
-3 1 -6 1 -7 l1 -1 198 0 198 0 1 1 c1 1 1 13 1 47 l0 46 -2 1 c-1 1 -9 1 -18
1 l-17 0 -3 -4 -3 -4 -121 0 -121 0 -1 2 -2 1 0 41 0 41 2 1 1 2 137 0 137 0
1 2 2 1 0 45 0 45 -2 1 c-1 1 -3 3 -5 6 l-5 4 -4 0 -5 0 -3 -4 -3 -4 -125 0
-125 0 -1 2 -2 1 0 37 0 37 2 1 1 2 141 0 c95 0 141 0 142 1 l2 1 0 54 0 54
-1 1 -1 1 -198 0 -197 0 -3 -4z"/></clipPath><clipPath id="clip_C"><path transform="translate(144,29) scale(0.125000) translate(0,496.0) scale(1,-1)" d="M208 476 l-3 -4 -53 0 -53 0 -3 -4 -3 -4 -9 0 -8 0 -6 -6 c-4 -4 -7
-8 -8 -8 -1 -1 -3 -2 -6 -2 -5 0 -6 0 -8 -4 -1 -2 -3 -4 -5 -5 l-3 -1 0 -6 0
-6 -4 -2 -4 -2 0 -6 0 -6 -4 -2 -4 -2 0 -6 0 -6 -4 -2 -4 -2 0 -150 0 -150 3
-2 c2 -1 4 -2 4 -2 1 -1 1 -7 1 -14 l0 -13 2 -1 c1 -1 3 -3 5 -6 l5 -4 5 0 5
0 1 -2 c1 -1 1 -6 1 -10 l0 -9 2 -1 c1 -1 3 -3 5 -6 l5 -4 204 0 204 0 5 4 c2
3 4 5 5 6 l2 1 0 9 c0 4 0 9 1 10 l1 2 5 0 5 0 5 4 c2 3 4 5 5 6 l2 1 0 13 c0
7 0 13 1 14 0 0 2 1 4 2 l3 2 0 46 0 46 -2 1 c-1 1 -20 1 -54 1 l-53 0 -1 -2
-2 -1 0 -9 0 -9 -2 -1 c0 -1 -2 -2 -2 -2 0 0 -2 -1 -2 -2 l-2 -1 0 -13 0 -13
-2 -1 c-2 -2 -6 -6 -8 -8 -1 -1 -3 -2 -6 -2 -3 0 -5 -1 -6 -1 -1 -1 -2 -3 -3
-4 l-2 -3 -49 0 -49 0 -2 -4 c-2 -2 -4 -4 -5 -4 -1 0 -3 2 -5 4 l-2 4 -45 0
-45 0 -2 3 c-1 1 -2 3 -3 4 -1 0 -3 1 -6 1 -3 0 -5 1 -6 1 -1 1 -2 3 -3 4 l-2
3 -6 0 -5 0 -1 2 c-1 1 -1 33 -1 94 l0 93 2 1 c0 1 9 9 18 18 l16 16 100 0
100 0 16 -16 16 -16 56 0 c37 0 57 0 58 1 l2 1 0 34 0 34 -4 2 -4 2 0 6 0 6
-4 2 -4 2 0 6 0 6 -4 2 -4 2 0 6 0 6 -3 1 c-2 1 -4 3 -5 5 -2 4 -3 4 -8 4 -3
0 -5 1 -6 2 -1 1 -5 5 -9 9 -5 4 -8 8 -8 9 0 1 -3 4 -5 4 -1 0 -3 -2 -4 -4 -3
-6 -6 -5 -9 1 l-2 3 -57 0 -57 0 -3 4 -3 4 -49 0 -49 0 -3 -4z"/></clipPath><clipPath id="clip_I"><path transform="translate(210,29) scale(0.125000) translate(0,496.0) scale(1,-1)" d="M17 479 l-1 -1 0 -230 0 -230 1 -1 1 -1 50 0 49 0 3 4 c1 2 4 4 5 5
l3 1 0 226 0 226 -1 1 -1 1 -54 0 -54 0 -1 -1z"/></clipPath><clipPath id="clip_mountain"><path transform="translate(88,100) scale(0.125000) translate(0,656.0) scale(1,-1)" d="M705 639 c0 -1 -1 -4 -1 -7 l0 -6 -3 -2 c-2 -1 -4 -2 -4 -2 -1 -1 -1
-5 -1 -10 l0 -9 -2 -1 -2 -2 -4 0 -5 0 -2 3 c-1 1 -2 3 -3 4 l-1 1 -21 0 -21
0 -1 -2 -2 -1 0 -21 0 -21 -2 -1 c-1 -1 -3 -4 -6 -6 -3 -2 -5 -5 -6 -6 l-2 -1
0 -9 0 -9 -2 -1 c-2 -2 -6 -6 -8 -8 l-1 -2 -5 0 -5 0 -1 -1 c-1 -1 -2 -3 -3
-4 l-2 -3 -9 0 -9 0 -1 -2 -2 -1 0 -29 0 -28 -1 -2 -1 -2 -5 0 -5 0 -9 -8 c-4
-5 -8 -9 -9 -10 l-2 -1 0 -9 0 -9 -2 -1 -1 -2 -9 0 c-4 0 -9 0 -10 1 l-2 1 0
6 0 6 -2 1 c-1 1 -7 1 -14 1 l-13 0 -1 -2 -2 -1 0 -21 0 -21 -2 -1 c-1 -1 -5
-5 -9 -10 l-9 -8 -12 0 -13 0 -1 -2 -2 -1 0 -9 0 -9 -2 -1 -1 -2 -65 0 -65 0
-3 4 -3 4 -33 0 -33 0 -1 -2 -2 -1 0 -21 0 -20 -1 -2 -1 -2 -5 0 -6 0 -3 -4
-3 -4 -9 0 -9 0 -1 -2 -2 -1 0 -9 0 -9 -2 -1 -1 -2 -13 0 -12 0 -8 8 -8 8 -20
0 -21 0 -1 -2 -2 -1 0 -25 c0 -13 0 -25 -1 -26 0 0 -2 -1 -4 -2 l-3 -2 0 -6 0
-6 -2 -1 -2 -1 -32 0 -32 0 -2 -1 -2 -1 0 -94 0 -94 1 -1 1 -1 538 0 538 0 1
2 c1 1 1 7 1 14 0 7 0 13 1 14 0 0 2 1 4 2 l3 2 0 106 0 106 -3 2 c-2 1 -4 2
-4 2 -1 1 -1 5 -1 10 l0 9 -2 1 c-1 1 -3 4 -6 6 -3 2 -5 5 -6 6 l-2 1 0 21 0
21 -2 1 -1 2 -25 0 -25 0 -3 4 c-1 2 -4 4 -5 5 l-3 1 0 6 0 6 -2 1 c-1 1 -6 1
-10 1 l-9 0 -3 4 -3 4 -9 0 -9 0 -1 2 -2 1 0 21 0 21 -2 1 -1 2 -33 0 -33 0
-2 -4 -3 -4 -2 0 c-4 0 -4 2 -4 8 l0 6 -3 2 c-2 0 -4 3 -5 4 l-3 4 -13 0 -12
0 -9 8 c-4 5 -8 9 -9 10 l-2 1 0 25 0 25 -2 1 -1 2 -13 0 c-7 0 -13 0 -14 -1
l-2 -1 0 -6 0 -6 -2 -1 c-1 -1 -7 -1 -14 -1 l-13 0 -1 2 -2 1 0 49 0 49 -2 1
-1 2 -9 0 -9 0 -1 2 -2 1 0 9 c0 5 0 9 -1 10 0 0 -2 1 -4 2 l-3 2 0 6 c0 3 -1
6 -1 7 l-1 1 -14 0 -14 0 -1 -1z"/></clipPath></defs>

<g fill="#000">
<rect x="8" y="0" width="4" height="194"/>
<rect x="23" y="31.95" width="67" height="1.10"/><rect x="23" y="34.95" width="27" height="1.10"/><rect x="64" y="34.95" width="26" height="1.10"/><rect x="23" y="38.95" width="27" height="1.10"/><rect x="64" y="38.95" width="26" height="1.10"/><rect x="23" y="42.95" width="30" height="1.10"/><rect x="64" y="42.95" width="26" height="1.10"/><rect x="23" y="45.95" width="32" height="1.10"/><rect x="64" y="45.95" width="26" height="1.10"/><rect x="23" y="49.95" width="34" height="1.10"/><rect x="64" y="49.95" width="26" height="1.10"/><rect x="23" y="52.95" width="25" height="1.10"/><rect x="52" y="52.95" width="5" height="1.10"/><rect x="64" y="52.95" width="26" height="1.10"/><rect x="23" y="56.95" width="24" height="1.10"/><rect x="65" y="56.95" width="25" height="1.10"/><rect x="23" y="60.00" width="25" height="2.00"/><rect x="68" y="60.00" width="22" height="2.00"/><rect x="23" y="63.95" width="27" height="1.10"/><rect x="67" y="63.95" width="23" height="1.10"/><rect x="43" y="66.95" width="2" height="1.10"/><rect x="23" y="67.95" width="28" height="1.10"/><rect x="64" y="67.95" width="26" height="1.10"/><rect x="23" y="70.95" width="30" height="1.10"/><rect x="64" y="70.95" width="26" height="1.10"/><rect x="43" y="71.95" width="2" height="1.10"/><rect x="23" y="74.95" width="32" height="1.10"/><rect x="64" y="74.95" width="26" height="1.10"/><rect x="23" y="77.95" width="33" height="1.10"/><rect x="64" y="77.95" width="26" height="1.10"/><rect x="49" y="78.95" width="5" height="1.10"/><rect x="51" y="80.00" width="4" height="2.00"/><rect x="23" y="81.95" width="34" height="1.10"/><rect x="65" y="81.95" width="25" height="1.10"/><rect x="50" y="83.00" width="7" height="3.00"/><rect x="23" y="85.95" width="34" height="1.10"/><rect x="67" y="85.95" width="23" height="1.10"/><rect x="51" y="87.00" width="6" height="2.00"/><rect x="23" y="88.95" width="34" height="1.10"/><rect x="69" y="88.95" width="23" height="1.10"/><rect x="158" y="89.95" width="38" height="1.10"/><rect x="91" y="90.00" width="50" height="2.00"/><rect x="212" y="90.00" width="13" height="2.00"/><rect x="162" y="90.95" width="30" height="1.10"/><rect x="51" y="90.00" width="6" height="3.00"/><rect x="23" y="92.95" width="34" height="1.10"/><rect x="70" y="92.95" width="22" height="1.10"/><rect x="51" y="94.00" width="6" height="2.00"/><rect x="23" y="95.95" width="34" height="1.10"/><rect x="70" y="95.95" width="22" height="1.10"/><rect x="23" y="99.95" width="34" height="1.10"/><rect x="64" y="99.95" width="28" height="1.10"/><rect x="177" y="100.95" width="2" height="1.10"/><rect x="23" y="102.95" width="34" height="1.10"/><rect x="64" y="102.95" width="27" height="1.10"/><rect x="91" y="105.95" width="76" height="1.10"/><rect x="182" y="105.95" width="43" height="1.10"/><rect x="23" y="106.95" width="34" height="1.10"/><rect x="64" y="106.95" width="28" height="1.10"/><rect x="23" y="110.95" width="34" height="1.10"/><rect x="64" y="110.95" width="28" height="1.10"/><rect x="23" y="113.95" width="34" height="1.10"/><rect x="64" y="113.95" width="28" height="1.10"/><rect x="23" y="117.95" width="34" height="1.10"/><rect x="64" y="117.95" width="95" height="1.10"/><rect x="192" y="118.00" width="33" height="2.00"/><rect x="92" y="118.95" width="67" height="1.10"/><rect x="23" y="120.95" width="34" height="1.10"/><rect x="64" y="120.95" width="28" height="1.10"/><rect x="23" y="124.95" width="34" height="1.10"/><rect x="64" y="124.95" width="28" height="1.10"/><rect x="64" y="127.95" width="27" height="1.10"/><rect x="23" y="128.00" width="34" height="2.00"/><rect x="64" y="128.95" width="84" height="1.10"/><rect x="209" y="128.95" width="16" height="1.10"/><rect x="23" y="131.95" width="34" height="1.10"/><rect x="64" y="131.95" width="28" height="1.10"/><rect x="23" y="135.95" width="34" height="1.10"/><rect x="64" y="135.95" width="28" height="1.10"/><rect x="23" y="138.95" width="34" height="1.10"/><rect x="64" y="138.95" width="52" height="1.10"/><rect x="223" y="138.95" width="3" height="1.10"/><rect x="23" y="142.95" width="34" height="1.10"/><rect x="64" y="142.95" width="28" height="1.10"/><rect x="23" y="145.95" width="34" height="1.10"/><rect x="64" y="145.95" width="27" height="1.10"/><rect x="91" y="147.00" width="9" height="2.00"/><rect x="23" y="149.95" width="34" height="1.10"/><rect x="64" y="149.95" width="28" height="1.10"/><rect x="23" y="153.00" width="34" height="2.00"/><rect x="64" y="153.00" width="27" height="2.00"/><rect x="23" y="156.95" width="34" height="1.10"/><rect x="64" y="156.95" width="26" height="1.10"/><rect x="23" y="160.95" width="34" height="1.10"/><rect x="64" y="160.95" width="26" height="1.10"/><rect x="23" y="163.95" width="34" height="1.10"/><rect x="64" y="163.95" width="26" height="1.10"/><rect x="23" y="167.95" width="34" height="1.10"/><rect x="64" y="167.95" width="26" height="1.10"/><rect x="23" y="171.00" width="34" height="2.00"/><rect x="64" y="171.00" width="26" height="2.00"/><rect x="23" y="174.95" width="34" height="1.10"/><rect x="64" y="174.95" width="26" height="1.10"/><rect x="23" y="178.95" width="35" height="1.10"/><rect x="64" y="178.95" width="26" height="1.10"/>
<path transform="translate(45,32) scale(0.125000) translate(0,1200.0) scale(1,-1)" d="M104 1180 l-3 -4 -29 0 c-25 0 -29 0 -30 -2 -2 -1 -2 -4 -2 -18 0
-21 0 -20 12 -20 12 0 12 0 12 -16 0 -7 0 -13 1 -14 1 -2 2 -2 7 -2 7 0 8 -1
8 -12 0 -7 0 -9 2 -10 1 -1 3 -4 6 -6 3 -2 5 -5 6 -6 2 -1 2 -4 2 -22 0 -18 0
-21 2 -22 0 -1 2 -2 2 -2 0 0 2 -1 2 -2 3 -2 3 -18 0 -20 -2 -3 -42 -3 -44 0
-2 1 -2 4 -2 14 0 15 -1 16 -8 16 -4 0 -5 0 -7 -3 -1 -1 -2 -3 -3 -4 -1 -1 -4
-1 -10 -1 -13 0 -12 2 -12 -28 l0 -26 3 -1 c1 -1 4 -3 5 -5 3 -4 3 -4 9 -4 6
0 7 -1 7 -12 0 -7 0 -9 2 -10 0 -1 2 -2 2 -2 0 0 2 -1 2 -2 2 -1 2 -4 2 -14 0
-7 0 -13 1 -14 1 -2 2 -2 7 -2 5 0 6 0 7 -2 1 -1 1 -10 1 -22 0 -12 0 -21 1
-22 1 -2 2 -2 6 -2 5 0 6 0 10 -4 2 -3 4 -5 5 -6 2 -1 2 -3 2 -10 0 -7 0 -9 2
-10 0 -1 2 -2 2 -2 0 0 2 -1 2 -2 2 -1 2 -9 2 -70 0 -61 0 -69 2 -70 0 -1 2
-2 2 -2 0 0 2 -1 2 -2 2 -1 2 -3 2 -10 0 -7 0 -9 -2 -10 0 -1 -2 -2 -2 -2 0 0
-2 -1 -2 -2 -2 -1 -2 -4 -2 -14 0 -14 0 -15 5 -17 3 0 3 -3 3 -12 0 -8 -1 -8
-3 -10 -6 -3 -6 -7 0 -10 2 -2 3 -2 3 -10 0 -9 0 -12 -3 -12 -5 -2 -5 -3 -5
-17 0 -10 0 -13 2 -14 0 -1 2 -2 2 -2 0 0 2 -1 2 -2 3 -2 3 -18 0 -20 0 -1 -2
-2 -2 -2 0 0 -2 -1 -2 -2 -3 -2 -3 -26 0 -28 0 -1 2 -2 2 -2 0 0 2 -1 2 -2 3
-2 3 -18 0 -20 0 -1 -2 -2 -2 -2 0 0 -2 -1 -2 -2 -2 -1 -2 -5 -2 -30 0 -25 0
-29 2 -30 0 -1 2 -2 2 -2 0 0 2 -1 2 -2 3 -2 3 -18 0 -20 0 -1 -2 -2 -2 -2 0
0 -2 -1 -2 -2 -3 -2 -3 -26 0 -28 0 -1 2 -2 2 -2 0 0 2 -1 2 -2 3 -2 3 -18 0
-20 0 -1 -2 -2 -2 -2 0 0 -2 -1 -2 -2 -3 -2 -3 -26 0 -28 0 -1 2 -2 2 -2 0 0
2 -1 2 -2 3 -2 3 -18 0 -20 0 -1 -2 -2 -2 -2 0 0 -2 -1 -2 -2 -2 -1 -2 -5 -2
-30 0 -25 0 -29 2 -30 0 -1 2 -2 2 -2 0 0 2 -1 2 -2 2 -1 2 -3 2 -10 0 -7 0
-9 -2 -10 0 -1 -2 -2 -2 -2 0 0 -2 -1 -2 -2 -3 -2 -3 -26 0 -28 0 -1 2 -2 2
-2 0 0 2 -1 2 -2 3 -2 3 -18 0 -20 0 -1 -2 -2 -2 -2 0 0 -2 -1 -2 -2 -2 -1 -2
-5 -2 -30 0 -25 0 -29 2 -30 0 -1 2 -2 2 -2 0 0 2 -1 2 -2 2 -1 2 -4 2 -14 0
-7 0 -13 1 -14 1 -2 2 -2 23 -2 21 0 22 0 23 2 1 1 1 105 1 326 0 294 0 325 2
326 1 2 4 2 22 2 12 0 21 0 22 1 2 1 2 2 2 19 l0 18 -3 2 c-2 1 -4 2 -4 2 -1
1 -1 7 -1 14 0 11 0 13 -2 14 -1 1 -3 3 -5 6 -3 2 -6 4 -7 5 -2 1 -2 2 -2 7 0
3 -1 6 -1 7 -1 0 -4 1 -7 1 -5 0 -6 0 -7 2 -1 1 -1 7 -1 14 0 10 0 13 -2 14 0
1 -2 2 -2 2 0 0 -2 1 -2 2 -2 1 -2 8 -2 66 0 58 0 65 2 66 1 2 3 2 10 2 12 0
12 0 12 12 0 8 1 12 3 12 3 0 5 4 5 8 0 3 0 4 -6 10 -6 6 -6 6 -11 6 -2 0 -5
1 -6 1 0 1 -1 4 -1 7 0 6 0 6 -3 8 -2 1 -4 2 -4 2 -1 1 -1 41 -1 90 0 59 0 89
-1 90 -1 2 -2 2 -22 2 l-22 0 -3 -4z"/><path transform="translate(88,29) scale(0.125000) translate(0,496.0) scale(1,-1)" d="M24 476 c-1 -2 -4 -4 -5 -5 l-3 -1 0 -218 0 -218 4 -2 4 -2 0 -6 c0
-3 1 -6 1 -7 l1 -1 198 0 198 0 1 1 c1 1 1 13 1 47 l0 46 -2 1 c-1 1 -9 1 -18
1 l-17 0 -3 -4 -3 -4 -121 0 -121 0 -1 2 -2 1 0 41 0 41 2 1 1 2 137 0 137 0
1 2 2 1 0 45 0 45 -2 1 c-1 1 -3 3 -5 6 l-5 4 -4 0 -5 0 -3 -4 -3 -4 -125 0
-125 0 -1 2 -2 1 0 37 0 37 2 1 1 2 141 0 c95 0 141 0 142 1 l2 1 0 54 0 54
-1 1 -1 1 -198 0 -197 0 -3 -4z"/><path transform="translate(144,29) scale(0.125000) translate(0,496.0) scale(1,-1)" d="M208 476 l-3 -4 -53 0 -53 0 -3 -4 -3 -4 -9 0 -8 0 -6 -6 c-4 -4 -7
-8 -8 -8 -1 -1 -3 -2 -6 -2 -5 0 -6 0 -8 -4 -1 -2 -3 -4 -5 -5 l-3 -1 0 -6 0
-6 -4 -2 -4 -2 0 -6 0 -6 -4 -2 -4 -2 0 -6 0 -6 -4 -2 -4 -2 0 -150 0 -150 3
-2 c2 -1 4 -2 4 -2 1 -1 1 -7 1 -14 l0 -13 2 -1 c1 -1 3 -3 5 -6 l5 -4 5 0 5
0 1 -2 c1 -1 1 -6 1 -10 l0 -9 2 -1 c1 -1 3 -3 5 -6 l5 -4 204 0 204 0 5 4 c2
3 4 5 5 6 l2 1 0 9 c0 4 0 9 1 10 l1 2 5 0 5 0 5 4 c2 3 4 5 5 6 l2 1 0 13 c0
7 0 13 1 14 0 0 2 1 4 2 l3 2 0 46 0 46 -2 1 c-1 1 -20 1 -54 1 l-53 0 -1 -2
-2 -1 0 -9 0 -9 -2 -1 c0 -1 -2 -2 -2 -2 0 0 -2 -1 -2 -2 l-2 -1 0 -13 0 -13
-2 -1 c-2 -2 -6 -6 -8 -8 -1 -1 -3 -2 -6 -2 -3 0 -5 -1 -6 -1 -1 -1 -2 -3 -3
-4 l-2 -3 -49 0 -49 0 -2 -4 c-2 -2 -4 -4 -5 -4 -1 0 -3 2 -5 4 l-2 4 -45 0
-45 0 -2 3 c-1 1 -2 3 -3 4 -1 0 -3 1 -6 1 -3 0 -5 1 -6 1 -1 1 -2 3 -3 4 l-2
3 -6 0 -5 0 -1 2 c-1 1 -1 33 -1 94 l0 93 2 1 c0 1 9 9 18 18 l16 16 100 0
100 0 16 -16 16 -16 56 0 c37 0 57 0 58 1 l2 1 0 34 0 34 -4 2 -4 2 0 6 0 6
-4 2 -4 2 0 6 0 6 -4 2 -4 2 0 6 0 6 -3 1 c-2 1 -4 3 -5 5 -2 4 -3 4 -8 4 -3
0 -5 1 -6 2 -1 1 -5 5 -9 9 -5 4 -8 8 -8 9 0 1 -3 4 -5 4 -1 0 -3 -2 -4 -4 -3
-6 -6 -5 -9 1 l-2 3 -57 0 -57 0 -3 4 -3 4 -49 0 -49 0 -3 -4z"/><path transform="translate(210,29) scale(0.125000) translate(0,496.0) scale(1,-1)" d="M17 479 l-1 -1 0 -230 0 -230 1 -1 1 -1 50 0 49 0 3 4 c1 2 4 4 5 5
l3 1 0 226 0 226 -1 1 -1 1 -54 0 -54 0 -1 -1z"/><path transform="translate(88,100) scale(0.125000) translate(0,656.0) scale(1,-1)" d="M705 639 c0 -1 -1 -4 -1 -7 l0 -6 -3 -2 c-2 -1 -4 -2 -4 -2 -1 -1 -1
-5 -1 -10 l0 -9 -2 -1 -2 -2 -4 0 -5 0 -2 3 c-1 1 -2 3 -3 4 l-1 1 -21 0 -21
0 -1 -2 -2 -1 0 -21 0 -21 -2 -1 c-1 -1 -3 -4 -6 -6 -3 -2 -5 -5 -6 -6 l-2 -1
0 -9 0 -9 -2 -1 c-2 -2 -6 -6 -8 -8 l-1 -2 -5 0 -5 0 -1 -1 c-1 -1 -2 -3 -3
-4 l-2 -3 -9 0 -9 0 -1 -2 -2 -1 0 -29 0 -28 -1 -2 -1 -2 -5 0 -5 0 -9 -8 c-4
-5 -8 -9 -9 -10 l-2 -1 0 -9 0 -9 -2 -1 -1 -2 -9 0 c-4 0 -9 0 -10 1 l-2 1 0
6 0 6 -2 1 c-1 1 -7 1 -14 1 l-13 0 -1 -2 -2 -1 0 -21 0 -21 -2 -1 c-1 -1 -5
-5 -9 -10 l-9 -8 -12 0 -13 0 -1 -2 -2 -1 0 -9 0 -9 -2 -1 -1 -2 -65 0 -65 0
-3 4 -3 4 -33 0 -33 0 -1 -2 -2 -1 0 -21 0 -20 -1 -2 -1 -2 -5 0 -6 0 -3 -4
-3 -4 -9 0 -9 0 -1 -2 -2 -1 0 -9 0 -9 -2 -1 -1 -2 -13 0 -12 0 -8 8 -8 8 -20
0 -21 0 -1 -2 -2 -1 0 -25 c0 -13 0 -25 -1 -26 0 0 -2 -1 -4 -2 l-3 -2 0 -6 0
-6 -2 -1 -2 -1 -32 0 -32 0 -2 -1 -2 -1 0 -94 0 -94 1 -1 1 -1 538 0 538 0 1
2 c1 1 1 7 1 14 0 7 0 13 1 14 0 0 2 1 4 2 l3 2 0 106 0 106 -3 2 c-2 1 -4 2
-4 2 -1 1 -1 5 -1 10 l0 9 -2 1 c-1 1 -3 4 -6 6 -3 2 -5 5 -6 6 l-2 1 0 21 0
21 -2 1 -1 2 -25 0 -25 0 -3 4 c-1 2 -4 4 -5 5 l-3 1 0 6 0 6 -2 1 c-1 1 -6 1
-10 1 l-9 0 -3 4 -3 4 -9 0 -9 0 -1 2 -2 1 0 21 0 21 -2 1 -1 2 -33 0 -33 0
-2 -4 -3 -4 -2 0 c-4 0 -4 2 -4 8 l0 6 -3 2 c-2 0 -4 3 -5 4 l-3 4 -13 0 -12
0 -9 8 c-4 5 -8 9 -9 10 l-2 1 0 25 0 25 -2 1 -1 2 -13 0 c-7 0 -13 0 -14 -1
l-2 -1 0 -6 0 -6 -2 -1 c-1 -1 -7 -1 -14 -1 l-13 0 -1 2 -2 1 0 49 0 49 -2 1
-1 2 -9 0 -9 0 -1 2 -2 1 0 9 c0 5 0 9 -1 10 0 0 -2 1 -4 2 l-3 2 0 6 c0 3 -1
6 -1 7 l-1 1 -14 0 -14 0 -1 -1z"/>
</g>
<path d="M 46.5,60 C 43.2,63.5 42.2,68.5 43.8,72.8 C 45.2,76.6 49.5,79.2 55.5,80.2" fill="none" stroke="#000" stroke-width="1.6" stroke-linecap="round"/>
<g clip-path="url(#clip_E)" fill="#fff"><rect x="0" y="40.95" width="602" height="2.10"/><rect x="0" y="50.95" width="602" height="1.10"/><rect x="0" y="53.95" width="602" height="1.10"/><rect x="0" y="58.95" width="602" height="2.10"/><rect x="0" y="66.95" width="602" height="1.10"/><rect x="0" y="73.95" width="602" height="1.10"/><rect x="0" y="76.95" width="602" height="1.10"/><rect x="0" y="79.95" width="602" height="1.10"/><rect x="0" y="84.95" width="602" height="2.10"/></g><g clip-path="url(#clip_C)" fill="#fff"><rect x="0" y="40.95" width="602" height="1.10"/><rect x="0" y="50.95" width="602" height="1.10"/><rect x="0" y="58.95" width="602" height="2.10"/><rect x="0" y="66.95" width="602" height="1.10"/><rect x="0" y="73.95" width="602" height="1.10"/><rect x="0" y="79.95" width="602" height="1.10"/><rect x="0" y="84.95" width="602" height="2.10"/></g><g clip-path="url(#clip_I)" fill="#fff"><rect x="0" y="40.95" width="602" height="2.10"/><rect x="0" y="50.95" width="602" height="1.10"/><rect x="0" y="58.95" width="602" height="2.10"/><rect x="0" y="66.95" width="602" height="1.10"/><rect x="0" y="73.95" width="602" height="1.10"/><rect x="0" y="79.95" width="602" height="1.10"/><rect x="0" y="84.95" width="602" height="2.10"/></g><g clip-path="url(#clip_mountain)" fill="#fff"><rect x="0" y="104.95" width="602" height="2.10"/><rect x="0" y="117.95" width="602" height="2.10"/><rect x="0" y="128.95" width="602" height="2.10"/><rect x="0" y="138.95" width="602" height="1.10"/><rect x="0" y="146.95" width="602" height="2.10"/><rect x="0" y="154.95" width="602" height="1.10"/><rect x="0" y="161.95" width="602" height="1.10"/><rect x="0" y="167.95" width="602" height="1.10"/><rect x="0" y="172.95" width="602" height="2.10"/><rect x="0" y="176.95" width="602" height="1.10"/></g>
<g fill="#000">
<path transform="translate(242.441,90.900) scale(0.008516,-0.021289)" d="M137 0V1409H1245V1181H432V827H1184V599H432V228H1286V0Z"/><path transform="translate(263.858,90.900) scale(0.008516,-0.021289)" d="M137 0V1409H432V228H1188V0Z"/><path transform="translate(284.441,90.900) scale(0.008516,-0.021289)" d="M137 0V1409H1245V1181H432V827H1184V599H432V228H1286V0Z"/><path transform="translate(307.083,90.900) scale(0.008516,-0.021289)" d="M795 212Q1062 212 1166 480L1423 383Q1340 179 1179.5 79.5Q1019 -20 795 -20Q455 -20 269.5 172.5Q84 365 84 711Q84 1058 263.0 1244.0Q442 1430 782 1430Q1030 1430 1186.0 1330.5Q1342 1231 1405 1038L1145 967Q1112 1073 1015.5 1135.5Q919 1198 788 1198Q588 1198 484.5 1074.0Q381 950 381 711Q381 468 487.5 340.0Q594 212 795 212Z"/><path transform="translate(331.669,90.900) scale(0.008516,-0.021289)" d="M773 1181V0H478V1181H23V1409H1229V1181Z"/><path transform="translate(353.298,90.900) scale(0.008516,-0.021289)" d="M1105 0 778 535H432V0H137V1409H841Q1093 1409 1230.0 1300.5Q1367 1192 1367 989Q1367 841 1283.0 733.5Q1199 626 1056 592L1437 0ZM1070 977Q1070 1180 810 1180H432V764H818Q942 764 1006.0 820.0Q1070 876 1070 977Z"/><path transform="translate(376.577,90.900) scale(0.008516,-0.021289)" d="M137 0V1409H432V0Z"/><path transform="translate(393.083,90.900) scale(0.008516,-0.021289)" d="M795 212Q1062 212 1166 480L1423 383Q1340 179 1179.5 79.5Q1019 -20 795 -20Q455 -20 269.5 172.5Q84 365 84 711Q84 1058 263.0 1244.0Q442 1430 782 1430Q1030 1430 1186.0 1330.5Q1342 1231 1405 1038L1145 967Q1112 1073 1015.5 1135.5Q919 1198 788 1198Q588 1198 484.5 1074.0Q381 950 381 711Q381 468 487.5 340.0Q594 212 795 212Z"/><path transform="translate(418.715,90.900) scale(0.008516,-0.021289)" d="M1133 0 1008 360H471L346 0H51L565 1409H913L1425 0ZM739 1192 733 1170Q723 1134 709.0 1088.0Q695 1042 537 582H942L803 987L760 1123Z"/><path transform="translate(443.858,90.900) scale(0.008516,-0.021289)" d="M137 0V1409H432V228H1188V0Z"/><path transform="translate(242.083,137.900) scale(0.008516,-0.021289)" d="M795 212Q1062 212 1166 480L1423 383Q1340 179 1179.5 79.5Q1019 -20 795 -20Q455 -20 269.5 172.5Q84 365 84 711Q84 1058 263.0 1244.0Q442 1430 782 1430Q1030 1430 1186.0 1330.5Q1342 1231 1405 1038L1145 967Q1112 1073 1015.5 1135.5Q919 1198 788 1198Q588 1198 484.5 1074.0Q381 950 381 711Q381 468 487.5 340.0Q594 212 795 212Z"/><path transform="translate(267.226,137.900) scale(0.008516,-0.021289)" d="M1507 711Q1507 491 1420.0 324.0Q1333 157 1171.0 68.5Q1009 -20 793 -20Q461 -20 272.5 175.5Q84 371 84 711Q84 1050 272.0 1240.0Q460 1430 795 1430Q1130 1430 1318.5 1238.0Q1507 1046 1507 711ZM1206 711Q1206 939 1098.0 1068.5Q990 1198 795 1198Q597 1198 489.0 1069.5Q381 941 381 711Q381 479 491.5 345.5Q602 212 793 212Q991 212 1098.5 342.0Q1206 472 1206 711Z"/><path transform="translate(293.707,137.900) scale(0.008516,-0.021289)" d="M995 0 381 1085Q399 927 399 831V0H137V1409H474L1097 315Q1079 466 1079 590V1409H1341V0Z"/><path transform="translate(318.773,137.900) scale(0.008516,-0.021289)" d="M1286 406Q1286 199 1132.5 89.5Q979 -20 682 -20Q411 -20 257.0 76.0Q103 172 59 367L344 414Q373 302 457.0 251.5Q541 201 690 201Q999 201 999 389Q999 449 963.5 488.0Q928 527 863.5 553.0Q799 579 616 616Q458 653 396.0 675.5Q334 698 284.0 728.5Q234 759 199.0 802.0Q164 845 144.5 903.0Q125 961 125 1036Q125 1227 268.5 1328.5Q412 1430 686 1430Q948 1430 1079.5 1348.0Q1211 1266 1249 1077L963 1038Q941 1129 873.5 1175.0Q806 1221 680 1221Q412 1221 412 1053Q412 998 440.5 963.0Q469 928 525.0 903.5Q581 879 752 842Q955 799 1042.5 762.5Q1130 726 1181.0 677.5Q1232 629 1259.0 561.5Q1286 494 1286 406Z"/><path transform="translate(341.211,137.900) scale(0.008516,-0.021289)" d="M723 -20Q432 -20 277.5 122.0Q123 264 123 528V1409H418V551Q418 384 497.5 297.5Q577 211 731 211Q889 211 974.0 301.5Q1059 392 1059 561V1409H1354V543Q1354 275 1188.5 127.5Q1023 -20 723 -20Z"/><path transform="translate(363.858,137.900) scale(0.008516,-0.021289)" d="M137 0V1409H432V228H1188V0Z"/><path transform="translate(386.169,137.900) scale(0.008516,-0.021289)" d="M773 1181V0H478V1181H23V1409H1229V1181Z"/><path transform="translate(410.715,137.900) scale(0.008516,-0.021289)" d="M1133 0 1008 360H471L346 0H51L565 1409H913L1425 0ZM739 1192 733 1170Q723 1134 709.0 1088.0Q695 1042 537 582H942L803 987L760 1123Z"/><path transform="translate(436.707,137.900) scale(0.008516,-0.021289)" d="M995 0 381 1085Q399 927 399 831V0H137V1409H474L1097 315Q1079 466 1079 590V1409H1341V0Z"/><path transform="translate(461.669,137.900) scale(0.008516,-0.021289)" d="M773 1181V0H478V1181H23V1409H1229V1181Z"/><path transform="translate(483.773,137.900) scale(0.008516,-0.021289)" d="M1286 406Q1286 199 1132.5 89.5Q979 -20 682 -20Q411 -20 257.0 76.0Q103 172 59 367L344 414Q373 302 457.0 251.5Q541 201 690 201Q999 201 999 389Q999 449 963.5 488.0Q928 527 863.5 553.0Q799 579 616 616Q458 653 396.0 675.5Q334 698 284.0 728.5Q234 759 199.0 802.0Q164 845 144.5 903.0Q125 961 125 1036Q125 1227 268.5 1328.5Q412 1430 686 1430Q948 1430 1079.5 1348.0Q1211 1266 1249 1077L963 1038Q941 1129 873.5 1175.0Q806 1221 680 1221Q412 1221 412 1053Q412 998 440.5 963.0Q469 928 525.0 903.5Q581 879 752 842Q955 799 1042.5 762.5Q1130 726 1181.0 677.5Q1232 629 1259.0 561.5Q1286 494 1286 406Z"/><path transform="translate(495.069,137.900) scale(0.008516,-0.021289)" d="M432 66Q432 -54 406.5 -146.0Q381 -238 324 -317H139Q198 -246 235.0 -161.0Q272 -76 272 0H143V305H432Z"/><path transform="translate(534.077,137.900) scale(0.008516,-0.021289)" d="M137 0V1409H432V0Z"/><path transform="translate(550.707,137.900) scale(0.008516,-0.021289)" d="M995 0 381 1085Q399 927 399 831V0H137V1409H474L1097 315Q1079 466 1079 590V1409H1341V0Z"/><path transform="translate(575.583,137.900) scale(0.008516,-0.021289)" d="M795 212Q1062 212 1166 480L1423 383Q1340 179 1179.5 79.5Q1019 -20 795 -20Q455 -20 269.5 172.5Q84 365 84 711Q84 1058 263.0 1244.0Q442 1430 782 1430Q1030 1430 1186.0 1330.5Q1342 1231 1405 1038L1145 967Q1112 1073 1015.5 1135.5Q919 1198 788 1198Q588 1198 484.5 1074.0Q381 950 381 711Q381 468 487.5 340.0Q594 212 795 212Z"/><path transform="translate(589.086,137.900) scale(0.008516,-0.021289)" d="M139 0V305H428V0Z"/><path transform="translate(243.418,161.900) scale(0.003390,-0.006396)" d="M1386 402Q1386 210 1242.0 105.0Q1098 0 842 0H137V1409H782Q1040 1409 1172.5 1319.5Q1305 1230 1305 1055Q1305 935 1238.5 852.5Q1172 770 1036 741Q1207 721 1296.5 633.5Q1386 546 1386 402ZM1008 1015Q1008 1110 947.5 1150.0Q887 1190 768 1190H432V841H770Q895 841 951.5 884.5Q1008 928 1008 1015ZM1090 425Q1090 623 806 623H432V219H817Q959 219 1024.5 270.5Q1090 322 1090 425Z"/><path transform="translate(265.036,161.900) scale(0.003390,-0.006396)" d="M137 0V1409H432V0Z"/><path transform="translate(283.754,161.900) scale(0.003390,-0.006396)" d="M137 0V1409H432V228H1188V0Z"/><path transform="translate(303.754,161.900) scale(0.003390,-0.006396)" d="M137 0V1409H432V228H1188V0Z"/><path transform="translate(324.536,161.900) scale(0.003390,-0.006396)" d="M137 0V1409H432V0Z"/><path transform="translate(343.495,161.900) scale(0.003390,-0.006396)" d="M995 0 381 1085Q399 927 399 831V0H137V1409H474L1097 315Q1079 466 1079 590V1409H1341V0Z"/><path transform="translate(364.373,161.900) scale(0.003390,-0.006396)" d="M806 211Q921 211 1029.0 244.5Q1137 278 1196 330V525H852V743H1466V225Q1354 110 1174.5 45.0Q995 -20 798 -20Q454 -20 269.0 170.5Q84 361 84 711Q84 1059 270.0 1244.5Q456 1430 805 1430Q1301 1430 1436 1063L1164 981Q1120 1088 1026.0 1143.0Q932 1198 805 1198Q597 1198 489.0 1072.0Q381 946 381 711Q381 472 492.5 341.5Q604 211 806 211Z"/><path transform="translate(385.800,161.9) scale(0.003390,-0.006396)" d="M1286 406Q1286 199 1132.5 89.5Q979 -20 682 -20Q411 -20 257.0 76.0Q103 172 59 367L344 414Q373 302 457.0 251.5Q541 201 690 201Q999 201 999 389Q999 449 963.5 488.0Q928 527 863.5 553.0Q799 579 616 616Q458 653 396.0 675.5Q334 698 284.0 728.5Q234 759 199.0 802.0Q164 845 144.5 903.0Q125 961 125 1036Q125 1227 268.5 1328.5Q412 1430 686 1430Q948 1430 1079.5 1348.0Q1211 1266 1249 1077L963 1038Q941 1129 873.5 1175.0Q806 1221 680 1221Q412 1221 412 1053Q412 998 440.5 963.0Q469 928 525.0 903.5Q581 879 752 842Q955 799 1042.5 762.5Q1130 726 1181.0 677.5Q1232 629 1259.0 561.5Q1286 494 1286 406Z"/><path transform="translate(389.935,161.9) scale(0.003390,-0.006396)" d="M432 66Q432 -54 406.5 -146.0Q381 -238 324 -317H139Q198 -246 235.0 -161.0Q272 -76 272 0H143V305H432Z"/><path transform="translate(417.108,161.900) scale(0.003390,-0.006396)" d="M1307 0V854Q1307 883 1307.5 912.0Q1308 941 1317 1161Q1246 892 1212 786L958 0H748L494 786L387 1161Q399 929 399 854V0H137V1409H532L784 621L806 545L854 356L917 582L1176 1409H1569V0Z"/><path transform="translate(438.803,161.900) scale(0.003390,-0.006396)" d="M1507 711Q1507 491 1420.0 324.0Q1333 157 1171.0 68.5Q1009 -20 793 -20Q461 -20 272.5 175.5Q84 371 84 711Q84 1050 272.0 1240.0Q460 1430 795 1430Q1130 1430 1318.5 1238.0Q1507 1046 1507 711ZM1206 711Q1206 939 1098.0 1068.5Q990 1198 795 1198Q597 1198 489.0 1069.5Q381 941 381 711Q381 479 491.5 345.5Q602 212 793 212Q991 212 1098.5 342.0Q1206 472 1206 711Z"/><path transform="translate(460.495,161.900) scale(0.003390,-0.006396)" d="M995 0 381 1085Q399 927 399 831V0H137V1409H474L1097 315Q1079 466 1079 590V1409H1341V0Z"/><path transform="translate(481.878,161.900) scale(0.003390,-0.006396)" d="M773 1181V0H478V1181H23V1409H1229V1181Z"/><path transform="translate(501.998,161.900) scale(0.003390,-0.006396)" d="M1133 0 1008 360H471L346 0H51L565 1409H913L1425 0ZM739 1192 733 1170Q723 1134 709.0 1088.0Q695 1042 537 582H942L803 987L760 1123Z"/><path transform="translate(523.495,161.900) scale(0.003390,-0.006396)" d="M995 0 381 1085Q399 927 399 831V0H137V1409H474L1097 315Q1079 466 1079 590V1409H1341V0Z"/><path transform="translate(544.498,161.900) scale(0.003390,-0.006396)" d="M1133 0 1008 360H471L346 0H51L565 1409H913L1425 0ZM739 1192 733 1170Q723 1134 709.0 1088.0Q695 1042 537 582H942L803 987L760 1123Z"/><path transform="translate(25.600,22.5) scale(0.007384,-0.007384)" d="M697 966H555L619 1409H803ZM328 966H187L250 1409H434Z"/><path transform="translate(30.968,22.5) scale(0.007384,-0.007384)" d="M63 0 336 1409H1385L1355 1253H497L409 801H1207L1177 647H379L284 156H1183L1153 0Z"/><path transform="translate(41.054,22.5) scale(0.007384,-0.007384)" d="M717 0 843 645Q861 733 861 795Q861 962 682 962Q556 962 460.0 866.0Q364 770 332 606L214 0H34L200 851Q220 946 239 1082H409Q409 1071 398.5 1004.5Q388 938 381 897H384Q467 1012 550.5 1056.5Q634 1101 749 1101Q897 1101 971.5 1028.0Q1046 955 1046 817Q1046 753 1025 653L898 0Z"/><path transform="translate(49.465,22.5) scale(0.007384,-0.007384)" d="M397 -425Q58 -425 4 -173L167 -131Q202 -288 401 -288Q543 -288 621.0 -214.5Q699 -141 731 27L765 201H763Q701 112 653.5 73.0Q606 34 546.5 13.0Q487 -8 410 -8Q257 -8 163.5 92.5Q70 193 70 359Q70 492 107.5 646.0Q145 800 210.0 902.0Q275 1004 368.0 1052.5Q461 1101 588 1101Q709 1101 792.5 1044.0Q876 987 900 897H902Q909 934 927.0 1003.5Q945 1073 950 1082H1121L1102 1000L1072 858L911 31Q863 -211 739.0 -318.0Q615 -425 397 -425ZM259 373Q259 252 311.5 188.5Q364 125 466 125Q574 125 662.0 203.5Q750 282 798.5 419.0Q847 556 847 704Q847 829 783.0 898.5Q719 968 607 968Q517 968 457.0 931.0Q397 894 356.0 815.0Q315 736 287.0 604.5Q259 473 259 373Z"/><path transform="translate(57.875,22.5) scale(0.007384,-0.007384)" d="M287 1312 321 1484H501L467 1312ZM33 0 243 1082H423L212 0Z"/><path transform="translate(61.235,22.5) scale(0.007384,-0.007384)" d="M717 0 843 645Q861 733 861 795Q861 962 682 962Q556 962 460.0 866.0Q364 770 332 606L214 0H34L200 851Q220 946 239 1082H409Q409 1071 398.5 1004.5Q388 938 381 897H384Q467 1012 550.5 1056.5Q634 1101 749 1101Q897 1101 971.5 1028.0Q1046 955 1046 817Q1046 753 1025 653L898 0Z"/><path transform="translate(69.645,22.5) scale(0.007384,-0.007384)" d="M256 503Q250 468 247 390Q247 257 313.5 186.0Q380 115 514 115Q611 115 690.0 163.0Q769 211 813 294L951 231Q878 100 765.5 40.0Q653 -20 493 -20Q292 -20 180.5 91.5Q69 203 69 405Q69 606 140.0 765.5Q211 925 340.0 1013.5Q469 1102 630 1102Q835 1102 949.0 999.0Q1063 896 1063 708Q1063 603 1039 503ZM880 641 884 713Q884 837 819.5 903.0Q755 969 634 969Q500 969 408.5 883.5Q317 798 280 641Z"/><path transform="translate(78.055,22.5) scale(0.007384,-0.007384)" d="M256 503Q250 468 247 390Q247 257 313.5 186.0Q380 115 514 115Q611 115 690.0 163.0Q769 211 813 294L951 231Q878 100 765.5 40.0Q653 -20 493 -20Q292 -20 180.5 91.5Q69 203 69 405Q69 606 140.0 765.5Q211 925 340.0 1013.5Q469 1102 630 1102Q835 1102 949.0 999.0Q1063 896 1063 708Q1063 603 1039 503ZM880 641 884 713Q884 837 819.5 903.0Q755 969 634 969Q500 969 408.5 883.5Q317 798 280 641Z"/><path transform="translate(86.465,22.5) scale(0.007384,-0.007384)" d="M718 938Q674 951 628 951Q523 951 438.5 841.0Q354 731 324 564L214 0H34L196 830L221 968L239 1082H409L374 861H378Q444 994 508.0 1048.0Q572 1102 656 1102Q702 1102 751 1088Z"/><path transform="translate(91.501,22.5) scale(0.007384,-0.007384)" d="M287 1312 321 1484H501L467 1312ZM33 0 243 1082H423L212 0Z"/><path transform="translate(94.861,22.5) scale(0.007384,-0.007384)" d="M717 0 843 645Q861 733 861 795Q861 962 682 962Q556 962 460.0 866.0Q364 770 332 606L214 0H34L200 851Q220 946 239 1082H409Q409 1071 398.5 1004.5Q388 938 381 897H384Q467 1012 550.5 1056.5Q634 1101 749 1101Q897 1101 971.5 1028.0Q1046 955 1046 817Q1046 753 1025 653L898 0Z"/><path transform="translate(103.271,22.5) scale(0.007384,-0.007384)" d="M397 -425Q58 -425 4 -173L167 -131Q202 -288 401 -288Q543 -288 621.0 -214.5Q699 -141 731 27L765 201H763Q701 112 653.5 73.0Q606 34 546.5 13.0Q487 -8 410 -8Q257 -8 163.5 92.5Q70 193 70 359Q70 492 107.5 646.0Q145 800 210.0 902.0Q275 1004 368.0 1052.5Q461 1101 588 1101Q709 1101 792.5 1044.0Q876 987 900 897H902Q909 934 927.0 1003.5Q945 1073 950 1082H1121L1102 1000L1072 858L911 31Q863 -211 739.0 -318.0Q615 -425 397 -425ZM259 373Q259 252 311.5 188.5Q364 125 466 125Q574 125 662.0 203.5Q750 282 798.5 419.0Q847 556 847 704Q847 829 783.0 898.5Q719 968 607 968Q517 968 457.0 931.0Q397 894 356.0 815.0Q315 736 287.0 604.5Q259 473 259 373Z"/><path transform="translate(115.883,22.5) scale(0.007384,-0.007384)" d="M1068 0H859L822 698L816 934Q786 859 762.0 802.5Q738 746 402 0H194L102 1082H280L320 347L327 149L408 339L749 1082H942L986 339Q992 231 992 149Q1025 228 1413 1082H1589Z"/><path transform="translate(126.804,22.5) scale(0.007384,-0.007384)" d="M287 1312 321 1484H501L467 1312ZM33 0 243 1082H423L212 0Z"/><path transform="translate(130.163,22.5) scale(0.007384,-0.007384)" d="M275 -20Q190 -20 141.5 31.0Q93 82 93 166Q93 221 108 296L234 951H109L135 1082H262L367 1324H487L440 1082H640L614 951H414L289 306Q277 246 277 211Q277 123 367 123Q409 123 467 137L448 4Q349 -20 275 -20Z"/><path transform="translate(134.365,22.5) scale(0.007384,-0.007384)" d="M383 897Q466 1012 549.5 1056.5Q633 1101 748 1101Q896 1101 970.5 1028.0Q1045 955 1045 817Q1045 753 1024 653L897 0H716L842 645Q860 733 860 795Q860 962 681 962Q555 962 459.0 866.0Q363 770 331 606L213 0H34L322 1484H502L427 1098Q409 998 380 897Z"/><path transform="translate(146.976,22.5) scale(0.007384,-0.007384)" d="M744 1409Q1056 1409 1234.5 1244.5Q1413 1080 1413 791Q1413 555 1310.0 378.0Q1207 201 1013.5 100.5Q820 0 575 0H63L336 1409ZM283 153H567Q762 153 911.0 230.5Q1060 308 1139.5 453.5Q1219 599 1219 793Q1219 1012 1093.0 1134.0Q967 1256 740 1256H498Z"/><path transform="translate(157.897,22.5) scale(0.007384,-0.007384)" d="M287 1312 321 1484H501L467 1312ZM33 0 243 1082H423L212 0Z"/><path transform="translate(161.257,22.5) scale(0.007384,-0.007384)" d="M907 317Q907 155 783.0 67.5Q659 -20 425 -20Q251 -20 148.5 38.5Q46 97 5 223L152 279Q185 191 254.5 151.0Q324 111 441 111Q584 111 658.0 159.5Q732 208 732 301Q732 363 681.0 404.5Q630 446 465 497Q337 539 273.0 579.0Q209 619 175.0 672.5Q141 726 141 797Q141 942 257.0 1020.5Q373 1099 584 1099Q938 1099 982 844L819 819Q797 898 736.0 933.0Q675 968 572 968Q448 968 381.5 928.5Q315 889 315 817Q315 775 336.0 746.0Q357 717 396.5 694.5Q436 672 579 627Q706 587 770.5 546.0Q835 505 871.0 449.0Q907 393 907 317Z"/><path transform="translate(168.818,22.5) scale(0.007384,-0.007384)" d="M275 -20Q190 -20 141.5 31.0Q93 82 93 166Q93 221 108 296L234 951H109L135 1082H262L367 1324H487L440 1082H640L614 951H414L289 306Q277 246 277 211Q277 123 367 123Q409 123 467 137L448 4Q349 -20 275 -20Z"/><path transform="translate(173.019,22.5) scale(0.007384,-0.007384)" d="M287 1312 321 1484H501L467 1312ZM33 0 243 1082H423L212 0Z"/><path transform="translate(176.379,22.5) scale(0.007384,-0.007384)" d="M717 0 843 645Q861 733 861 795Q861 962 682 962Q556 962 460.0 866.0Q364 770 332 606L214 0H34L200 851Q220 946 239 1082H409Q409 1071 398.5 1004.5Q388 938 381 897H384Q467 1012 550.5 1056.5Q634 1101 749 1101Q897 1101 971.5 1028.0Q1046 955 1046 817Q1046 753 1025 653L898 0Z"/><path transform="translate(184.789,22.5) scale(0.007384,-0.007384)" d="M469 122Q674 122 758 352L914 303Q793 -20 465 -20Q273 -20 170.0 89.0Q67 198 67 395Q67 595 139.5 767.0Q212 939 331.5 1020.5Q451 1102 625 1102Q794 1102 892.5 1017.0Q991 932 1001 784L824 759Q818 856 764.0 908.5Q710 961 619 961Q493 961 415.0 893.5Q337 826 294.0 679.0Q251 532 251 389Q251 122 469 122Z"/><path transform="translate(192.350,22.5) scale(0.007384,-0.007384)" d="M275 -20Q190 -20 141.5 31.0Q93 82 93 166Q93 221 108 296L234 951H109L135 1082H262L367 1324H487L440 1082H640L614 951H414L289 306Q277 246 277 211Q277 123 367 123Q409 123 467 137L448 4Q349 -20 275 -20Z"/><path transform="translate(196.552,22.5) scale(0.007384,-0.007384)" d="M287 1312 321 1484H501L467 1312ZM33 0 243 1082H423L212 0Z"/><path transform="translate(199.911,22.5) scale(0.007384,-0.007384)" d="M1074 683Q1074 553 1034.0 412.5Q994 272 919.5 174.5Q845 77 737.0 28.5Q629 -20 491 -20Q295 -20 181.0 98.0Q67 216 67 419Q71 623 141.0 781.0Q211 939 335.0 1020.0Q459 1101 642 1101Q852 1101 963.0 991.5Q1074 882 1074 683ZM888 683Q888 969 640 969Q505 969 423.5 899.5Q342 830 297.0 689.0Q252 548 252 416Q252 268 316.0 190.5Q380 113 502 113Q605 113 667.5 147.5Q730 182 777.0 255.5Q824 329 853.5 443.0Q883 557 888 683Z"/><path transform="translate(208.322,22.5) scale(0.007384,-0.007384)" d="M717 0 843 645Q861 733 861 795Q861 962 682 962Q556 962 460.0 866.0Q364 770 332 606L214 0H34L200 851Q220 946 239 1082H409Q409 1071 398.5 1004.5Q388 938 381 897H384Q467 1012 550.5 1056.5Q634 1101 749 1101Q897 1101 971.5 1028.0Q1046 955 1046 817Q1046 753 1025 653L898 0Z"/><path transform="translate(216.732,22.5) scale(0.007384,-0.007384)" d="M697 966H555L619 1409H803ZM328 966H187L250 1409H434Z"/>
</g>
</svg>